<?xml version="1.0" encoding="UTF-8"?>
<svg id="Layer_7" data-name="Layer 7" xmlns="http://www.w3.org/2000/svg" viewBox="0 0 80.74 128.89">
  <defs>
    <style>
      .cls-1 {
        fill: #231f20;
      }

      .cls-2 {
        fill: #ec008c;
      }
    </style>
  </defs>
  <g id="Layer_9" data-name="Layer 9">
    <rect class="cls-2" x="-259.39" y="-577.7" width="611.67" height="820.77"/>
  </g>
  <g>
    <path class="cls-1" d="M15.73,78.8h1.88c1.25,0,2.1.05,2.54.14.44.1.8.34,1.08.74.28.4.42,1.03.42,1.9,0,.79-.1,1.33-.3,1.6-.2.27-.59.44-1.17.49.53.13.88.3,1.06.52.18.22.29.42.34.6.04.18.07.68.07,1.51v2.69h-2.46v-3.39c0-.55-.04-.88-.13-1.01s-.31-.2-.68-.2v4.6h-2.65v-10.19ZM18.37,80.54v2.27c.3,0,.51-.04.63-.12.12-.08.18-.35.18-.8v-.56c0-.32-.06-.54-.17-.64s-.33-.15-.63-.15Z"/>
    <path class="cls-1" d="M27.25,78.8l1.52,10.19h-2.71l-.14-1.83h-.95l-.16,1.83h-2.74l1.35-10.19h3.83ZM25.85,85.35c-.13-1.15-.27-2.58-.4-4.28-.27,1.95-.44,3.38-.51,4.28h.91Z"/>
    <path class="cls-1" d="M29.21,78.8h2.67c.72,0,1.28.06,1.67.17.39.11.68.28.88.49.2.21.33.47.4.78.07.3.1.78.1,1.41v.89c0,.65-.07,1.12-.2,1.42-.13.3-.38.53-.74.69s-.83.24-1.41.24h-.71v4.1h-2.65v-10.19ZM31.87,80.54v2.59c.08,0,.14,0,.2,0,.24,0,.41-.06.51-.18.09-.12.14-.37.14-.75v-.84c0-.35-.05-.58-.16-.68-.11-.1-.34-.16-.68-.16Z"/>
    <path class="cls-1" d="M38.34,78.8v10.19h-2.65v-10.19h2.65Z"/>
    <path class="cls-1" d="M39.4,78.8h1.98c1.28,0,2.15.06,2.6.18.45.12.79.31,1.03.58s.38.57.44.9.09.98.09,1.94v3.57c0,.92-.04,1.53-.13,1.83s-.24.55-.45.72c-.21.17-.48.29-.79.36-.31.07-.79.1-1.42.1h-3.34v-10.19ZM42.05,80.54v6.7c.38,0,.62-.08.71-.23.09-.15.13-.57.13-1.25v-3.96c0-.46-.01-.76-.04-.89s-.1-.23-.2-.29c-.1-.06-.3-.09-.59-.09Z"/>
    <path class="cls-1" d="M15.73,92.49h1.88c1.25,0,2.1.05,2.54.15.44.1.8.34,1.08.74s.42,1.03.42,1.9c0,.79-.1,1.33-.3,1.6-.2.27-.59.44-1.17.49.53.13.88.3,1.06.52.18.22.29.42.34.6s.07.69.07,1.51v2.69h-2.46v-3.39c0-.54-.04-.88-.13-1.01-.09-.13-.31-.2-.68-.2v4.59h-2.65v-10.19ZM18.37,94.23v2.27c.3,0,.51-.04.63-.12.12-.08.18-.35.18-.8v-.56c0-.32-.06-.54-.17-.64-.12-.1-.33-.15-.63-.15Z"/>
    <path class="cls-1" d="M22.67,92.49h4.42v2.04h-1.77v1.93h1.66v1.94h-1.66v2.24h1.95v2.04h-4.59v-10.19Z"/>
    <path class="cls-1" d="M33.64,95.57h-2.46v-.76c0-.35-.03-.58-.09-.67-.06-.1-.17-.15-.31-.15-.16,0-.28.07-.36.2-.08.13-.12.33-.12.59,0,.34.05.6.14.77.09.17.34.38.75.62,1.18.7,1.92,1.27,2.23,1.72s.46,1.17.46,2.17c0,.73-.08,1.26-.25,1.6-.17.34-.5.63-.99.87-.49.23-1.05.35-1.7.35-.71,0-1.31-.13-1.82-.4-.5-.27-.83-.61-.99-1.03-.16-.42-.23-1-.23-1.77v-.67h2.46v1.24c0,.38.03.63.1.74.07.11.19.16.37.16s.31-.07.39-.21c.09-.14.13-.34.13-.62,0-.6-.08-.99-.25-1.18-.17-.18-.58-.49-1.24-.92-.66-.44-1.1-.75-1.31-.95s-.39-.47-.53-.82c-.14-.35-.21-.79-.21-1.33,0-.78.1-1.35.3-1.71.2-.36.52-.64.97-.85.45-.2.98-.31,1.61-.31.69,0,1.28.11,1.76.33s.81.5.96.84.24.91.24,1.72v.4Z"/>
    <path class="cls-1" d="M34.69,92.49h2.67c.72,0,1.28.06,1.67.17.39.11.68.28.88.49s.33.47.4.78c.07.3.1.78.1,1.41v.89c0,.65-.07,1.12-.2,1.42-.13.3-.38.53-.74.69-.36.16-.83.24-1.41.24h-.71v4.1h-2.65v-10.19ZM37.34,94.23v2.59c.08,0,.14,0,.2,0,.24,0,.41-.06.51-.18.09-.12.14-.37.14-.75v-.84c0-.35-.05-.58-.16-.68s-.34-.16-.68-.16Z"/>
    <path class="cls-1" d="M47.22,98.46c0,1.02-.02,1.75-.07,2.17-.05.43-.2.82-.45,1.17s-.6.62-1.03.81c-.43.19-.94.28-1.51.28s-1.04-.09-1.47-.27c-.43-.18-.78-.45-1.05-.8-.26-.36-.42-.75-.47-1.17-.05-.42-.08-1.15-.08-2.2v-1.74c0-1.02.02-1.75.07-2.17.05-.43.2-.81.45-1.17s.6-.62,1.03-.81c.43-.19.94-.28,1.51-.28.54,0,1.04.09,1.47.27.43.18.78.45,1.05.8s.42.75.47,1.16c.05.42.08,1.15.08,2.2v1.74ZM44.57,95.11c0-.47-.03-.78-.08-.91-.05-.13-.16-.2-.32-.2-.14,0-.24.05-.32.16-.07.11-.11.42-.11.95v4.76c0,.59.02.96.07,1.1.05.14.16.21.34.21s.3-.08.35-.24c.05-.16.08-.54.08-1.14v-4.68Z"/>
    <path class="cls-1" d="M54.12,92.49v10.19h-2.32l-1.38-4.63v4.63h-2.22v-10.19h2.22l1.49,4.59v-4.59h2.22Z"/>
    <path class="cls-1" d="M60.8,95.57h-2.46v-.76c0-.35-.03-.58-.09-.67-.06-.1-.17-.15-.31-.15-.16,0-.28.07-.36.2-.08.13-.12.33-.12.59,0,.34.05.6.14.77.09.17.34.38.75.62,1.18.7,1.92,1.27,2.23,1.72s.46,1.17.46,2.17c0,.73-.08,1.26-.25,1.6-.17.34-.5.63-.99.87-.49.23-1.05.35-1.7.35-.71,0-1.31-.13-1.82-.4-.5-.27-.83-.61-.99-1.03-.16-.42-.23-1-.23-1.77v-.67h2.46v1.24c0,.38.03.63.1.74.07.11.19.16.37.16s.31-.07.39-.21c.09-.14.13-.34.13-.62,0-.6-.08-.99-.25-1.18-.17-.18-.58-.49-1.24-.92-.66-.44-1.1-.75-1.31-.95s-.39-.47-.53-.82c-.14-.35-.21-.79-.21-1.33,0-.78.1-1.35.3-1.71.2-.36.52-.64.97-.85.45-.2.98-.31,1.61-.31.69,0,1.28.11,1.76.33s.81.5.96.84.24.91.24,1.72v.4Z"/>
    <path class="cls-1" d="M61.85,92.49h4.42v2.04h-1.77v1.93h1.66v1.94h-1.66v2.24h1.95v2.04h-4.59v-10.19Z"/>
    <path class="cls-1" d="M21.91,110.62h-2.65v-1.77c0-.51-.03-.84-.08-.96s-.18-.19-.37-.19c-.22,0-.36.08-.42.23s-.09.49-.09,1.01v4.73c0,.5.03.82.09.97.06.15.19.23.4.23s.33-.08.39-.23.09-.51.09-1.07v-1.28h2.65v.4c0,1.05-.07,1.8-.22,2.24-.15.44-.48.83-.99,1.16s-1.14.5-1.88.5-1.42-.14-1.92-.42c-.5-.28-.84-.67-1-1.17-.16-.5-.25-1.25-.25-2.24v-2.98c0-.73.03-1.29.08-1.65.05-.37.2-.72.45-1.06.25-.34.6-.61,1.04-.8.44-.2.95-.29,1.53-.29.78,0,1.42.15,1.93.45s.84.68,1,1.13c.16.45.24,1.15.24,2.1v.97Z"/>
    <path class="cls-1" d="M28.96,106.18v10.19h-2.65v-4.28h-.79v4.28h-2.65v-10.19h2.65v3.64h.79v-3.64h2.65Z"/>
    <path class="cls-1" d="M36.08,112.15c0,1.02-.02,1.75-.07,2.17-.05.43-.2.81-.45,1.17s-.6.62-1.03.81c-.43.19-.94.28-1.51.28s-1.04-.09-1.47-.27c-.43-.18-.78-.45-1.05-.8s-.42-.75-.47-1.16c-.05-.42-.08-1.15-.08-2.2v-1.74c0-1.02.02-1.75.07-2.17.05-.43.2-.82.45-1.17s.6-.62,1.03-.81c.43-.19.94-.28,1.51-.28.54,0,1.04.09,1.47.27.43.18.78.45,1.05.8.26.36.42.75.47,1.17.05.42.08,1.15.08,2.2v1.74ZM33.43,108.8c0-.47-.03-.78-.08-.91-.05-.13-.16-.2-.32-.2-.14,0-.24.05-.32.16-.07.11-.11.42-.11.95v4.76c0,.59.02.96.07,1.1.05.14.16.21.34.21s.3-.08.35-.24c.05-.16.08-.54.08-1.14v-4.68Z"/>
    <path class="cls-1" d="M39.71,106.18v10.19h-2.65v-10.19h2.65Z"/>
    <path class="cls-1" d="M40.78,106.18h1.88c1.25,0,2.1.05,2.54.14.44.1.8.34,1.08.74.28.4.42,1.03.42,1.9,0,.79-.1,1.33-.3,1.6-.2.27-.59.44-1.17.49.53.13.88.3,1.06.52.18.22.29.42.34.6.04.18.07.68.07,1.51v2.69h-2.46v-3.39c0-.55-.04-.88-.13-1.01s-.31-.2-.68-.2v4.6h-2.65v-10.19ZM43.43,107.92v2.27c.3,0,.51-.04.63-.12.12-.08.18-.35.18-.8v-.56c0-.32-.06-.54-.17-.64s-.33-.15-.63-.15Z"/>
  </g>
  <g>
    <rect class="cls-1" x="15.18" y="58.78" width="10.62" height="5.8"/>
    <rect class="cls-1" x="15.18" y="65.14" width="10.62" height="1.94"/>
    <rect class="cls-1" x="33.86" y="58.68" width="19.62" height="6"/>
    <rect class="cls-1" x="33.86" y="65.08" width="19.62" height="2.04"/>
    <rect class="cls-1" x="15.18" y="68.94" width="10.62" height=".97"/>
    <rect class="cls-1" x="33.86" y="68.91" width="19.62" height="1.02"/>
    <path class="cls-1" d="M33.97,55.76h19.51l-11.14-15.43s7.63-5.53,6.86-13.28c-.84-8.52-6.86-14.16-13.06-15.27-6.02-1.07-17.64,1.19-20.94,2.53v33.16l.07,8.26,9.89.02s0,0,0,0h0c-.07-.26-1.1-4.43,5.32-6.48-2.63-5.88-9-17.09-9-17.09,0,0,1.79.33,3.95,0,1.73-.26,3.7-.95,5.17-2.56.05-.05,1.87-1.97,2.17-3.03,0,0,.21,2.2-.1,4.06-.41,2.41-2.14,5.53-4.94,6.14,4.38,7.41,6.9,11.95,7.85,13.69.43.78.96,3.27-1.62,5.28Z"/>
  </g>
</svg>