<?xml version="1.0" encoding="UTF-8"?>
<svg id="Layer_7" data-name="Layer 7" xmlns="http://www.w3.org/2000/svg" viewBox="0 0 160.45 90.25">
  <defs>
    <style>
      .cls-1 {
        fill: #231f20;
      }
    </style>
  </defs>
  <g>
    <path class="cls-1" d="M65.94,16.73h2.85c1.9,0,3.19.07,3.86.22s1.22.52,1.64,1.12c.42.6.64,1.56.64,2.88,0,1.21-.15,2.02-.45,2.43-.3.42-.89.66-1.77.75.8.2,1.33.46,1.61.79.27.33.44.64.51.91.07.28.1,1.04.1,2.29v4.08h-3.74v-5.15c0-.83-.07-1.34-.2-1.54-.13-.2-.47-.3-1.03-.3v6.98h-4.03v-15.49ZM69.97,19.38v3.44c.45,0,.77-.06.95-.19s.27-.53.27-1.21v-.85c0-.49-.09-.81-.26-.97-.18-.15-.5-.23-.96-.23Z"/>
    <path class="cls-1" d="M83.45,16.73l2.3,15.49h-4.12l-.22-2.78h-1.44l-.24,2.78h-4.16l2.05-15.49h5.82ZM81.32,26.69c-.2-1.75-.41-3.92-.61-6.5-.41,2.96-.67,5.13-.77,6.5h1.39Z"/>
    <path class="cls-1" d="M86.44,16.73h4.06c1.1,0,1.94.09,2.53.26.59.17,1.03.42,1.33.75.3.33.5.72.6,1.18.11.46.16,1.18.16,2.15v1.35c0,.99-.1,1.71-.31,2.16-.2.45-.58.8-1.12,1.04-.55.24-1.26.36-2.14.36h-1.08v6.24h-4.03v-15.49ZM90.46,19.38v3.94c.11,0,.21,0,.3,0,.37,0,.63-.09.77-.27s.21-.56.21-1.13v-1.27c0-.53-.08-.87-.25-1.03-.17-.16-.51-.24-1.03-.24Z"/>
    <path class="cls-1" d="M100.3,16.73v15.49h-4.03v-15.49h4.03Z"/>
    <path class="cls-1" d="M101.91,16.73h3.01c1.95,0,3.26.09,3.95.27s1.21.47,1.56.88c.36.41.58.86.67,1.36.09.5.13,1.48.13,2.95v5.42c0,1.39-.07,2.32-.2,2.79s-.36.83-.68,1.1-.73.45-1.21.55-1.2.16-2.16.16h-5.08v-15.49ZM105.94,19.38v10.19c.58,0,.94-.12,1.07-.35s.2-.87.2-1.9v-6.02c0-.7-.02-1.15-.07-1.35-.04-.2-.15-.34-.31-.44-.16-.09-.46-.14-.9-.14Z"/>
    <path class="cls-1" d="M65.94,37.54h2.85c1.9,0,3.19.07,3.86.22.67.15,1.22.52,1.64,1.12.42.6.64,1.56.64,2.88,0,1.21-.15,2.01-.45,2.43-.3.41-.89.66-1.77.75.8.2,1.33.46,1.61.79.27.33.44.64.51.91.07.28.1,1.04.1,2.29v4.08h-3.74v-5.15c0-.83-.07-1.34-.2-1.54-.13-.2-.47-.3-1.03-.3v6.98h-4.03v-15.49ZM69.97,40.19v3.44c.45,0,.77-.06.95-.19.18-.12.27-.53.27-1.21v-.85c0-.49-.09-.81-.26-.97-.18-.15-.5-.23-.96-.23Z"/>
    <path class="cls-1" d="M76.49,37.54h6.71v3.1h-2.69v2.94h2.52v2.95h-2.52v3.41h2.96v3.1h-6.98v-15.49Z"/>
    <path class="cls-1" d="M93.16,42.23h-3.74v-1.15c0-.54-.05-.88-.14-1.02-.1-.15-.25-.22-.48-.22-.24,0-.43.1-.55.3-.12.2-.19.5-.19.9,0,.52.07.91.21,1.17.13.26.51.58,1.14.95,1.79,1.06,2.92,1.94,3.39,2.62.46.68.7,1.78.7,3.3,0,1.1-.13,1.92-.39,2.44-.26.52-.76.96-1.5,1.32-.74.35-1.6.53-2.58.53-1.08,0-2-.2-2.76-.61-.76-.41-1.26-.93-1.5-1.56-.24-.63-.35-1.53-.35-2.69v-1.01h3.74v1.88c0,.58.05.95.16,1.12s.29.25.56.25.47-.1.6-.32c.13-.21.2-.52.2-.94,0-.91-.12-1.51-.37-1.79-.25-.28-.88-.75-1.88-1.41-1-.66-1.66-1.14-1.99-1.44s-.59-.71-.81-1.24c-.21-.53-.32-1.21-.32-2.03,0-1.19.15-2.05.45-2.6.3-.55.79-.98,1.47-1.29.68-.31,1.49-.46,2.45-.46,1.05,0,1.94.17,2.67.51.74.34,1.22.76,1.46,1.28s.36,1.39.36,2.62v.61Z"/>
    <path class="cls-1" d="M94.76,37.54h4.06c1.1,0,1.94.09,2.53.26.59.17,1.03.42,1.33.75.3.33.5.72.6,1.18.11.46.16,1.18.16,2.15v1.35c0,.99-.1,1.71-.31,2.16-.2.45-.58.8-1.12,1.04s-1.26.36-2.14.36h-1.08v6.24h-4.03v-15.49ZM98.79,40.19v3.94c.12,0,.21,0,.3,0,.37,0,.63-.09.77-.27s.22-.56.22-1.13v-1.27c0-.53-.08-.87-.25-1.03-.17-.16-.51-.24-1.03-.24Z"/>
    <path class="cls-1" d="M113.79,46.61c0,1.56-.04,2.66-.11,3.3-.07.65-.3,1.24-.69,1.77-.39.54-.91.95-1.56,1.23-.66.29-1.42.43-2.3.43-.83,0-1.57-.14-2.23-.41s-1.19-.68-1.59-1.22c-.4-.54-.64-1.13-.72-1.77-.08-.64-.12-1.75-.12-3.35v-2.65c0-1.56.04-2.66.11-3.3.07-.65.3-1.24.69-1.77.39-.54.91-.95,1.56-1.23.66-.29,1.42-.43,2.3-.43.83,0,1.57.14,2.23.41.66.27,1.19.68,1.59,1.22s.64,1.13.72,1.77c.08.64.11,1.75.11,3.35v2.65ZM109.77,41.52c0-.72-.04-1.18-.12-1.38-.08-.2-.24-.3-.49-.3-.21,0-.37.08-.48.24-.11.16-.17.64-.17,1.44v7.23c0,.9.04,1.45.11,1.66.07.21.24.32.51.32s.45-.12.53-.36c.08-.24.12-.82.12-1.73v-7.12Z"/>
    <path class="cls-1" d="M124.29,37.54v15.49h-3.53l-2.09-7.04v7.04h-3.37v-15.49h3.37l2.26,6.97v-6.97h3.37Z"/>
    <path class="cls-1" d="M134.44,42.23h-3.74v-1.15c0-.54-.05-.88-.14-1.02-.1-.15-.25-.22-.48-.22-.24,0-.43.1-.55.3-.12.2-.19.5-.19.9,0,.52.07.91.21,1.17.13.26.51.58,1.14.95,1.79,1.06,2.92,1.94,3.39,2.62.46.68.7,1.78.7,3.3,0,1.1-.13,1.92-.39,2.44-.26.52-.76.96-1.5,1.32-.74.35-1.6.53-2.58.53-1.08,0-2-.2-2.76-.61-.76-.41-1.26-.93-1.5-1.56-.24-.63-.35-1.53-.35-2.69v-1.01h3.74v1.88c0,.58.05.95.16,1.12s.29.25.56.25.47-.1.6-.32c.13-.21.2-.52.2-.94,0-.91-.12-1.51-.37-1.79-.25-.28-.88-.75-1.88-1.41-1-.66-1.66-1.14-1.99-1.44s-.59-.71-.81-1.24c-.21-.53-.32-1.21-.32-2.03,0-1.19.15-2.05.45-2.6.3-.55.79-.98,1.47-1.29.68-.31,1.49-.46,2.45-.46,1.05,0,1.94.17,2.67.51.74.34,1.22.76,1.46,1.28s.36,1.39.36,2.62v.61Z"/>
    <path class="cls-1" d="M136.03,37.54h6.71v3.1h-2.69v2.94h2.52v2.95h-2.52v3.41h2.96v3.1h-6.98v-15.49Z"/>
    <path class="cls-1" d="M75.34,65.09h-4.03v-2.69c0-.78-.04-1.27-.13-1.46-.09-.19-.28-.29-.57-.29-.33,0-.54.12-.63.35-.09.24-.13.75-.13,1.53v7.19c0,.75.04,1.24.13,1.47.09.23.29.34.6.34s.5-.12.59-.34c.09-.23.14-.77.14-1.62v-1.95h4.03v.6c0,1.6-.11,2.74-.34,3.41s-.73,1.26-1.5,1.76c-.77.5-1.73.76-2.86.76s-2.15-.21-2.92-.64c-.76-.43-1.27-1.02-1.52-1.77-.25-.76-.37-1.89-.37-3.41v-4.52c0-1.12.04-1.95.12-2.51.08-.56.3-1.1.68-1.61.38-.52.91-.92,1.58-1.22.67-.3,1.45-.44,2.32-.44,1.19,0,2.17.23,2.94.69.77.46,1.28,1.03,1.52,1.71.24.68.36,1.75.36,3.2v1.47Z"/>
    <path class="cls-1" d="M86.05,58.35v15.49h-4.03v-6.5h-1.21v6.5h-4.03v-15.49h4.03v5.54h1.21v-5.54h4.03Z"/>
    <path class="cls-1" d="M96.86,67.41c0,1.56-.04,2.66-.11,3.31-.07.65-.3,1.24-.69,1.77-.39.54-.91.95-1.56,1.23-.66.29-1.42.43-2.3.43-.83,0-1.57-.14-2.23-.41-.66-.27-1.19-.68-1.59-1.22-.4-.54-.64-1.13-.72-1.77-.08-.64-.12-1.75-.12-3.35v-2.65c0-1.56.04-2.66.11-3.3.07-.65.3-1.24.69-1.77.39-.54.91-.95,1.56-1.23.66-.29,1.42-.43,2.3-.43.83,0,1.57.14,2.23.41.66.27,1.19.68,1.59,1.22s.64,1.13.72,1.77c.08.64.11,1.75.11,3.35v2.65ZM92.84,62.32c0-.72-.04-1.18-.12-1.38s-.24-.3-.49-.3c-.21,0-.37.08-.48.24-.11.16-.17.64-.17,1.44v7.23c0,.9.04,1.45.11,1.67.07.21.24.32.51.32s.45-.12.53-.36.12-.82.12-1.73v-7.12Z"/>
    <path class="cls-1" d="M102.39,58.35v15.49h-4.03v-15.49h4.03Z"/>
    <path class="cls-1" d="M104.01,58.35h2.85c1.9,0,3.19.07,3.86.22s1.22.52,1.64,1.12c.42.6.64,1.56.64,2.88,0,1.21-.15,2.02-.45,2.43-.3.42-.89.66-1.77.75.8.2,1.33.46,1.61.79.27.33.44.64.51.91.07.28.1,1.04.1,2.29v4.08h-3.74v-5.15c0-.83-.07-1.34-.2-1.54-.13-.2-.47-.3-1.03-.3v6.98h-4.03v-15.49ZM108.04,61v3.44c.45,0,.77-.06.95-.19s.27-.53.27-1.21v-.85c0-.49-.09-.81-.26-.97-.18-.15-.5-.23-.96-.23Z"/>
  </g>
  <g>
    <rect class="cls-1" x="18.09" y="63.45" width="10.62" height="5.8"/>
    <rect class="cls-1" x="18.09" y="69.81" width="10.62" height="1.94"/>
    <rect class="cls-1" x="36.77" y="63.35" width="19.62" height="6"/>
    <rect class="cls-1" x="36.77" y="69.76" width="19.62" height="2.04"/>
    <rect class="cls-1" x="18.09" y="73.62" width="10.62" height=".97"/>
    <rect class="cls-1" x="36.77" y="73.59" width="19.62" height="1.02"/>
    <path class="cls-1" d="M36.88,60.43h19.51l-11.14-15.43s7.63-5.53,6.86-13.28c-.84-8.52-6.86-14.16-13.06-15.27-6.02-1.07-17.64,1.19-20.94,2.53v33.16l.07,8.26,9.89.02s0,0,0,0h0c-.07-.26-1.1-4.43,5.32-6.48-2.63-5.88-9-17.09-9-17.09,0,0,1.79.33,3.95,0,1.73-.26,3.7-.95,5.17-2.56.05-.05,1.87-1.97,2.17-3.03,0,0,.21,2.2-.1,4.06-.41,2.41-2.14,5.53-4.94,6.14,4.38,7.41,6.9,11.95,7.85,13.69.43.78.96,3.27-1.62,5.28Z"/>
  </g>
</svg>