<?xml version="1.0" encoding="UTF-8"?>
<svg id="Layer_7" data-name="Layer 7" xmlns="http://www.w3.org/2000/svg" viewBox="0 0 174.37 99.67">
  <defs>
    <style>
      .cls-1 {
        fill: #231f20;
      }
    </style>
  </defs>
  <g>
    <path class="cls-1" d="M17.79,77.21h1.16c.78,0,1.3.03,1.58.09.27.06.5.21.67.46.17.25.26.64.26,1.18,0,.49-.06.82-.18.99-.12.17-.36.27-.72.3.33.08.54.19.66.32.11.13.18.26.21.37s.04.42.04.94v1.67h-1.53v-2.1c0-.34-.03-.55-.08-.63-.05-.08-.19-.12-.42-.12v2.85h-1.64v-6.32ZM19.44,78.3v1.41c.18,0,.31-.03.39-.08s.11-.22.11-.49v-.35c0-.2-.04-.33-.11-.39-.07-.06-.2-.09-.39-.09Z"/>
    <path class="cls-1" d="M22.14,77.21h1.16c.78,0,1.3.03,1.58.09.27.06.5.21.67.46.17.25.26.64.26,1.18,0,.49-.06.82-.18.99-.12.17-.36.27-.72.3.33.08.54.19.66.32.11.13.18.26.21.37s.04.42.04.94v1.67h-1.53v-2.1c0-.34-.03-.55-.08-.63-.05-.08-.19-.12-.42-.12v2.85h-1.64v-6.32ZM23.78,78.3v1.41c.18,0,.31-.03.39-.08s.11-.22.11-.49v-.35c0-.2-.04-.33-.11-.39-.07-.06-.2-.09-.39-.09Z"/>
    <path class="cls-1" d="M30.32,79.97h-1.64v-1.1c0-.32-.02-.52-.05-.6-.04-.08-.11-.12-.23-.12-.13,0-.22.05-.26.14-.04.1-.05.3-.05.62v2.94c0,.31.02.51.05.6.04.09.12.14.25.14s.2-.05.24-.14c.04-.09.06-.31.06-.66v-.79h1.64v.25c0,.65-.05,1.12-.14,1.39-.09.27-.3.51-.61.72s-.71.31-1.17.31-.88-.09-1.19-.26c-.31-.17-.52-.42-.62-.72s-.15-.77-.15-1.39v-1.85c0-.46.02-.8.05-1.03.03-.23.12-.45.28-.66.16-.21.37-.38.64-.5.28-.12.59-.18.95-.18.48,0,.88.09,1.2.28.32.19.52.42.62.7.1.28.15.71.15,1.31v.6Z"/>
    <path class="cls-1" d="M32.47,77.21v1.42c.14-.13.28-.22.44-.28.16-.06.33-.09.51-.09.28,0,.51.07.71.21.19.14.31.3.36.49s.06.52.06,1.01v3.57h-1.58v-3.65c0-.3-.01-.5-.04-.58-.03-.09-.1-.13-.2-.13-.1,0-.16.04-.2.13-.03.09-.05.26-.05.53v3.7h-1.58v-6.32h1.58Z"/>
    <path class="cls-1" d="M38.68,80.18v1.27c0,.47-.02.81-.07,1.03-.05.22-.15.42-.3.61-.15.19-.35.33-.59.42-.24.09-.52.13-.83.13-.35,0-.64-.04-.89-.12-.24-.08-.43-.19-.56-.35-.13-.16-.23-.34-.29-.56-.06-.22-.09-.55-.09-.99v-1.33c0-.48.05-.86.16-1.13.1-.27.29-.49.56-.65.27-.16.62-.25,1.04-.25.35,0,.66.05.91.16s.45.24.59.41c.14.17.23.34.28.52s.08.45.08.82ZM37.11,79.79c0-.27-.01-.43-.04-.5-.03-.07-.09-.1-.18-.1s-.16.03-.19.1c-.03.07-.05.24-.05.5v2.34c0,.24.02.4.05.48s.09.11.18.11.16-.03.19-.1c.03-.07.04-.21.04-.44v-2.39Z"/>
    <path class="cls-1" d="M40.86,77.21v.82h-1.62v-.82h1.62ZM40.86,78.36v5.18h-1.62v-5.18h1.62Z"/>
    <path class="cls-1" d="M43.04,78.36l-.06.68c.23-.49.56-.75,1-.78v1.82c-.29,0-.5.04-.64.12-.13.08-.22.19-.25.33-.03.14-.05.46-.05.96v2.05h-1.58v-5.18h1.58Z"/>
    <path class="cls-1" d="M44.85,82.25v1.29h-1.19v-1.29h1.19Z"/>
    <path class="cls-1" d="M48.87,80.18v1.27c0,.47-.02.81-.07,1.03-.05.22-.15.42-.3.61-.15.19-.35.33-.59.42-.24.09-.52.13-.83.13-.35,0-.64-.04-.89-.12-.24-.08-.43-.19-.56-.35-.13-.16-.23-.34-.29-.56-.06-.22-.09-.55-.09-.99v-1.33c0-.48.05-.86.16-1.13.1-.27.29-.49.56-.65.27-.16.62-.25,1.04-.25.35,0,.66.05.91.16s.45.24.59.41c.14.17.23.34.28.52s.08.45.08.82ZM47.3,79.79c0-.27-.01-.43-.04-.5-.03-.07-.09-.1-.18-.1s-.16.03-.19.1c-.03.07-.05.24-.05.5v2.34c0,.24.02.4.05.48s.09.11.18.11.16-.03.19-.1c.03-.07.04-.21.04-.44v-2.39Z"/>
    <path class="cls-1" d="M51,78.36l-.06.68c.23-.49.56-.75,1-.78v1.82c-.29,0-.5.04-.64.12-.14.08-.22.19-.25.33-.03.14-.05.46-.05.96v2.05h-1.58v-5.18h1.58Z"/>
    <path class="cls-1" d="M55.91,78.36v3.99c0,.54-.01.89-.04,1.04-.02.16-.11.32-.26.5-.15.18-.36.31-.63.4-.27.09-.61.14-1.02.14-.5,0-.91-.09-1.21-.26-.3-.17-.46-.51-.47-1.01h1.53c0,.23.08.34.25.34.12,0,.2-.04.24-.11s.06-.22.06-.44v-.39c-.13.12-.28.21-.43.28-.15.06-.31.09-.47.09-.28,0-.52-.06-.7-.17-.18-.12-.31-.27-.38-.45-.07-.19-.1-.45-.1-.79v-1.88c0-.49.09-.85.27-1.06.18-.22.45-.32.81-.32.2,0,.38.04.54.12.16.08.31.2.44.36l.11-.39h1.47ZM54.32,79.73c0-.24-.01-.39-.04-.45-.03-.07-.09-.1-.18-.1s-.16.04-.19.11c-.04.07-.06.22-.06.44v1.74c0,.23.01.38.04.45.03.07.09.1.18.1.1,0,.17-.04.2-.12.03-.08.05-.27.05-.57v-1.61Z"/>
  </g>
  <g>
    <path class="cls-1" d="M65.47,15.75h3.41c2.27,0,3.81.09,4.62.26.8.18,1.46.62,1.97,1.34s.76,1.87.76,3.45c0,1.44-.18,2.41-.54,2.91s-1.06.79-2.12.89c.95.24,1.59.55,1.92.95.33.4.53.76.61,1.09.08.33.12,1.25.12,2.74v4.88h-4.47v-6.15c0-.99-.08-1.6-.23-1.84-.16-.24-.57-.36-1.23-.36v8.35h-4.82V15.75ZM70.28,18.92v4.12c.54,0,.92-.07,1.14-.22.22-.15.33-.63.33-1.45v-1.02c0-.59-.1-.97-.31-1.16-.21-.18-.59-.27-1.15-.27Z"/>
    <path class="cls-1" d="M86.41,15.75l2.75,18.52h-4.92l-.26-3.33h-1.72l-.29,3.33h-4.98l2.46-18.52h6.96ZM83.86,27.66c-.24-2.1-.49-4.69-.73-7.78-.49,3.55-.8,6.14-.92,7.78h1.66Z"/>
    <path class="cls-1" d="M89.98,15.75h4.85c1.31,0,2.32.1,3.03.31.71.21,1.24.5,1.59.89.36.39.6.86.72,1.41.13.55.19,1.41.19,2.57v1.61c0,1.18-.12,2.04-.37,2.58-.24.54-.69.96-1.34,1.25-.65.29-1.5.43-2.56.43h-1.29v7.46h-4.82V15.75ZM94.8,18.92v4.71c.14,0,.26.01.35.01.44,0,.75-.11.92-.33.17-.22.26-.67.26-1.36v-1.52c0-.63-.1-1.04-.3-1.24s-.61-.29-1.24-.29Z"/>
    <path class="cls-1" d="M106.55,15.75v18.52h-4.82V15.75h4.82Z"/>
    <path class="cls-1" d="M108.49,15.75h3.6c2.33,0,3.9.11,4.72.32.82.21,1.44.56,1.87,1.05.43.49.69,1.03.8,1.63s.16,1.78.16,3.53v6.49c0,1.66-.08,2.77-.23,3.33s-.43,1-.82,1.32c-.39.32-.87.54-1.44.66-.57.13-1.43.19-2.58.19h-6.07V15.75ZM113.3,18.92v12.18c.69,0,1.12-.14,1.28-.42s.24-1.04.24-2.27v-7.2c0-.84-.03-1.38-.08-1.61-.05-.24-.18-.41-.37-.52s-.55-.17-1.08-.17Z"/>
    <path class="cls-1" d="M65.47,40.63h3.41c2.27,0,3.81.09,4.62.26.8.18,1.46.62,1.97,1.34s.76,1.87.76,3.45c0,1.44-.18,2.41-.54,2.91s-1.06.79-2.12.89c.95.24,1.59.55,1.92.95.33.4.53.76.61,1.09.08.33.12,1.25.12,2.74v4.88h-4.47v-6.15c0-.99-.08-1.6-.23-1.84-.16-.24-.57-.36-1.23-.36v8.35h-4.82v-18.52ZM70.28,43.8v4.12c.54,0,.92-.07,1.14-.22.22-.15.33-.63.33-1.45v-1.02c0-.59-.1-.97-.31-1.16-.21-.18-.59-.27-1.15-.27Z"/>
    <path class="cls-1" d="M78.08,40.63h8.03v3.71h-3.21v3.51h3.01v3.52h-3.01v4.07h3.53v3.71h-8.35v-18.52Z"/>
    <path class="cls-1" d="M98.02,46.24h-4.47v-1.37c0-.64-.06-1.05-.17-1.22-.11-.17-.3-.26-.57-.26-.29,0-.51.12-.66.35-.15.24-.22.6-.22,1.08,0,.62.08,1.08.25,1.4.16.31.61.69,1.36,1.13,2.14,1.27,3.49,2.32,4.05,3.13.56.82.83,2.13.83,3.95,0,1.32-.15,2.29-.46,2.92-.31.62-.91,1.15-1.79,1.57-.88.42-1.91.63-3.09.63-1.29,0-2.39-.24-3.3-.73-.91-.49-1.51-1.11-1.79-1.87-.28-.75-.42-1.83-.42-3.21v-1.21h4.47v2.25c0,.69.06,1.14.19,1.34s.35.3.67.3.56-.13.72-.38c.16-.25.23-.62.23-1.12,0-1.09-.15-1.8-.45-2.14-.31-.33-1.06-.9-2.25-1.68-1.2-.79-1.99-1.37-2.38-1.73s-.71-.85-.97-1.49c-.25-.63-.38-1.44-.38-2.42,0-1.42.18-2.46.54-3.11.36-.66.95-1.17,1.76-1.54.81-.37,1.78-.55,2.93-.55,1.25,0,2.32.2,3.2.61s1.46.91,1.75,1.53c.29.61.43,1.66.43,3.13v.73Z"/>
    <path class="cls-1" d="M99.93,40.63h4.85c1.31,0,2.32.1,3.03.31.71.21,1.24.5,1.59.89.36.39.6.86.72,1.41.13.55.19,1.41.19,2.57v1.61c0,1.18-.12,2.04-.37,2.58-.24.54-.69.96-1.34,1.25-.65.29-1.5.43-2.56.43h-1.29v7.46h-4.82v-18.52ZM104.75,43.8v4.71c.14,0,.26.01.35.01.44,0,.75-.11.92-.33.17-.22.26-.67.26-1.36v-1.52c0-.63-.1-1.04-.3-1.24s-.61-.29-1.24-.29Z"/>
    <path class="cls-1" d="M122.69,51.48c0,1.86-.04,3.18-.13,3.95-.09.77-.36,1.48-.82,2.12-.46.64-1.08,1.13-1.87,1.48-.79.34-1.7.51-2.75.51s-1.88-.16-2.67-.49c-.79-.32-1.42-.81-1.91-1.46s-.77-1.35-.86-2.12-.14-2.1-.14-4v-3.17c0-1.86.04-3.18.13-3.95.09-.77.36-1.48.82-2.12.46-.64,1.08-1.13,1.87-1.48.79-.34,1.7-.51,2.75-.51.99,0,1.88.16,2.67.49.79.32,1.42.81,1.9,1.46.48.65.77,1.35.86,2.12.09.76.14,2.1.14,4v3.17ZM117.88,45.39c0-.86-.05-1.41-.14-1.65-.09-.24-.29-.36-.59-.36-.25,0-.44.1-.58.29-.13.2-.2.77-.2,1.72v8.65c0,1.08.04,1.74.13,1.99.09.25.29.38.61.38s.54-.14.63-.43.14-.98.14-2.07v-8.51Z"/>
    <path class="cls-1" d="M135.24,40.63v18.52h-4.22l-2.5-8.42v8.42h-4.03v-18.52h4.03l2.7,8.34v-8.34h4.03Z"/>
    <path class="cls-1" d="M147.38,46.24h-4.47v-1.37c0-.64-.06-1.05-.17-1.22-.11-.17-.3-.26-.57-.26-.29,0-.51.12-.66.35-.15.24-.22.6-.22,1.08,0,.62.08,1.08.25,1.4.16.31.61.69,1.36,1.13,2.14,1.27,3.49,2.32,4.05,3.13.56.82.83,2.13.83,3.95,0,1.32-.15,2.29-.46,2.92-.31.62-.91,1.15-1.79,1.57-.88.42-1.91.63-3.09.63-1.29,0-2.39-.24-3.3-.73-.91-.49-1.51-1.11-1.79-1.87-.28-.75-.42-1.83-.42-3.21v-1.21h4.47v2.25c0,.69.06,1.14.19,1.34s.35.3.67.3.56-.13.72-.38c.16-.25.23-.62.23-1.12,0-1.09-.15-1.8-.45-2.14-.31-.33-1.06-.9-2.25-1.68-1.2-.79-1.99-1.37-2.38-1.73s-.71-.85-.97-1.49c-.25-.63-.38-1.44-.38-2.42,0-1.42.18-2.46.54-3.11.36-.66.95-1.17,1.76-1.54.81-.37,1.78-.55,2.93-.55,1.25,0,2.32.2,3.2.61s1.46.91,1.75,1.53c.29.61.43,1.66.43,3.13v.73Z"/>
    <path class="cls-1" d="M149.29,40.63h8.03v3.71h-3.21v3.51h3.01v3.52h-3.01v4.07h3.53v3.71h-8.35v-18.52Z"/>
    <path class="cls-1" d="M76.71,73.58h-4.82v-3.22c0-.94-.05-1.52-.15-1.75-.1-.23-.33-.35-.68-.35-.4,0-.65.14-.75.42-.11.28-.16.89-.16,1.83v8.6c0,.9.05,1.49.16,1.76.11.27.35.41.72.41s.59-.14.7-.41.17-.92.17-1.94v-2.33h4.82v.72c0,1.92-.14,3.28-.41,4.08s-.87,1.5-1.8,2.11c-.93.6-2.07.9-3.43.9s-2.57-.25-3.49-.77c-.92-.51-1.52-1.22-1.82-2.12-.3-.9-.45-2.26-.45-4.08v-5.41c0-1.33.05-2.34.14-3s.36-1.31.82-1.93c.45-.62,1.08-1.1,1.89-1.46s1.73-.53,2.77-.53c1.42,0,2.59.27,3.51.82.92.55,1.53,1.23,1.82,2.05.29.82.43,2.09.43,3.82v1.76Z"/>
    <path class="cls-1" d="M89.51,65.51v18.52h-4.82v-7.78h-1.44v7.78h-4.82v-18.52h4.82v6.62h1.44v-6.62h4.82Z"/>
    <path class="cls-1" d="M102.45,76.36c0,1.86-.04,3.18-.13,3.95-.09.77-.36,1.48-.82,2.12-.46.64-1.08,1.13-1.87,1.48-.79.34-1.7.51-2.75.51s-1.88-.16-2.67-.49c-.79-.32-1.42-.81-1.91-1.46s-.77-1.35-.86-2.12-.14-2.1-.14-4v-3.17c0-1.86.04-3.18.13-3.95.09-.77.36-1.48.82-2.12.46-.64,1.08-1.13,1.87-1.48.79-.34,1.7-.51,2.75-.51.99,0,1.88.16,2.67.49.79.32,1.42.81,1.9,1.46.48.65.77,1.35.86,2.12.09.76.14,2.1.14,4v3.17ZM97.63,70.27c0-.86-.05-1.41-.14-1.65-.09-.24-.29-.36-.59-.36-.25,0-.44.1-.58.29-.13.2-.2.77-.2,1.72v8.65c0,1.08.04,1.74.13,1.99.09.25.29.38.61.38s.54-.14.63-.43.14-.98.14-2.07v-8.51Z"/>
    <path class="cls-1" d="M109.06,65.51v18.52h-4.82v-18.52h4.82Z"/>
    <path class="cls-1" d="M110.99,65.51h3.41c2.27,0,3.81.09,4.62.26.8.18,1.46.62,1.97,1.34s.76,1.87.76,3.45c0,1.44-.18,2.41-.54,2.91s-1.06.79-2.12.89c.95.24,1.59.55,1.92.95.33.4.53.76.61,1.09.08.33.12,1.25.12,2.74v4.88h-4.47v-6.15c0-.99-.08-1.6-.23-1.84s-.57-.36-1.23-.36v8.35h-4.82v-18.52ZM115.81,68.68v4.12c.54,0,.92-.07,1.14-.22.22-.15.33-.63.33-1.45v-1.02c0-.59-.1-.97-.31-1.16-.21-.18-.59-.27-1.15-.27Z"/>
  </g>
  <g>
    <rect class="cls-1" x="17.47" y="62.07" width="10.62" height="5.8"/>
    <rect class="cls-1" x="17.47" y="68.43" width="10.62" height="1.94"/>
    <rect class="cls-1" x="36.14" y="61.97" width="19.62" height="6"/>
    <rect class="cls-1" x="36.14" y="68.38" width="19.62" height="2.04"/>
    <rect class="cls-1" x="17.47" y="72.23" width="10.62" height=".97"/>
    <rect class="cls-1" x="36.14" y="72.21" width="19.62" height="1.02"/>
    <path class="cls-1" d="M36.25,59.05h19.51l-11.14-15.43s7.63-5.53,6.86-13.28c-.84-8.52-6.86-14.16-13.06-15.27-6.02-1.07-17.64,1.19-20.94,2.53v33.16l.07,8.26,9.89.02s0,0,0,0h0c-.07-.26-1.1-4.43,5.32-6.48-2.63-5.88-9-17.09-9-17.09,0,0,1.79.33,3.95,0,1.73-.26,3.7-.95,5.17-2.56.05-.05,1.87-1.97,2.17-3.03,0,0,.21,2.2-.1,4.06-.41,2.41-2.14,5.53-4.94,6.14,4.38,7.41,6.9,11.95,7.85,13.69.43.78.96,3.27-1.62,5.28Z"/>
  </g>
</svg>